<mxfile host="app.diagrams.net" modified="2023-05-12T18:59:25.450Z" agent="Mozilla/5.0 (Windows NT 10.0; Win64; x64) AppleWebKit/537.36 (KHTML, like Gecko) Chrome/113.0.0.0 Safari/537.36" etag="eZlBBq3mzi_bRfCRnPmS" version="21.1.4" type="google">
  <diagram name="Page-1" id="Fj5d4DHtNh76A_HXBq4e">
    <mxGraphModel grid="0" page="0" gridSize="10" guides="1" tooltips="1" connect="1" arrows="1" fold="1" pageScale="1" pageWidth="850" pageHeight="1100" math="0" shadow="0">
      <root>
        <mxCell id="0" />
        <mxCell id="1" parent="0" />
        <mxCell id="wi1bxPE-I4fgc5AduZJ8-1" value="AWS - Cloud Service" style="whiteSpace=wrap;html=1;aspect=fixed;fontSize=16;" vertex="1" parent="1">
          <mxGeometry x="225" y="-35" width="117" height="117" as="geometry" />
        </mxCell>
        <mxCell id="wi1bxPE-I4fgc5AduZJ8-2" value="Window 2019 Server" style="whiteSpace=wrap;html=1;aspect=fixed;fontSize=16;" vertex="1" parent="1">
          <mxGeometry x="402" y="246" width="183" height="183" as="geometry" />
        </mxCell>
        <mxCell id="wi1bxPE-I4fgc5AduZJ8-6" style="edgeStyle=none;curved=1;rounded=0;orthogonalLoop=1;jettySize=auto;html=1;fontSize=12;startSize=8;endSize=8;" edge="1" parent="1" source="wi1bxPE-I4fgc5AduZJ8-5" target="wi1bxPE-I4fgc5AduZJ8-1">
          <mxGeometry relative="1" as="geometry" />
        </mxCell>
        <mxCell id="wi1bxPE-I4fgc5AduZJ8-5" value="Log Aggregation&lt;br&gt;CloudWatch, ElasticStack" style="ellipse;whiteSpace=wrap;html=1;aspect=fixed;fontSize=16;" vertex="1" parent="1">
          <mxGeometry x="381" y="-98" width="122" height="122" as="geometry" />
        </mxCell>
        <mxCell id="wi1bxPE-I4fgc5AduZJ8-8" value="" style="edgeStyle=none;curved=1;rounded=0;orthogonalLoop=1;jettySize=auto;html=1;fontSize=12;startSize=8;endSize=8;" edge="1" parent="1" source="wi1bxPE-I4fgc5AduZJ8-7" target="wi1bxPE-I4fgc5AduZJ8-2">
          <mxGeometry relative="1" as="geometry" />
        </mxCell>
        <mxCell id="wi1bxPE-I4fgc5AduZJ8-7" value="VPN" style="ellipse;whiteSpace=wrap;html=1;aspect=fixed;fontSize=16;" vertex="1" parent="1">
          <mxGeometry x="530" y="111" width="78" height="78" as="geometry" />
        </mxCell>
        <mxCell id="wi1bxPE-I4fgc5AduZJ8-9" value="Linux Data Server&lt;br&gt;PII / PCI Data" style="whiteSpace=wrap;html=1;aspect=fixed;fontSize=16;" vertex="1" parent="1">
          <mxGeometry x="93" y="215" width="169" height="169" as="geometry" />
        </mxCell>
        <mxCell id="wi1bxPE-I4fgc5AduZJ8-11" style="edgeStyle=none;curved=1;rounded=0;orthogonalLoop=1;jettySize=auto;html=1;entryX=0.04;entryY=-0.008;entryDx=0;entryDy=0;entryPerimeter=0;fontSize=12;startSize=8;endSize=8;" edge="1" parent="1" source="wi1bxPE-I4fgc5AduZJ8-10" target="wi1bxPE-I4fgc5AduZJ8-2">
          <mxGeometry relative="1" as="geometry" />
        </mxCell>
        <mxCell id="wi1bxPE-I4fgc5AduZJ8-10" value="Encrytion" style="ellipse;whiteSpace=wrap;html=1;aspect=fixed;fontSize=16;" vertex="1" parent="1">
          <mxGeometry x="362" y="121" width="80" height="80" as="geometry" />
        </mxCell>
        <mxCell id="wi1bxPE-I4fgc5AduZJ8-13" style="edgeStyle=none;curved=1;rounded=0;orthogonalLoop=1;jettySize=auto;html=1;entryX=0.009;entryY=0.601;entryDx=0;entryDy=0;entryPerimeter=0;fontSize=12;startSize=8;endSize=8;" edge="1" parent="1" source="wi1bxPE-I4fgc5AduZJ8-12" target="wi1bxPE-I4fgc5AduZJ8-1">
          <mxGeometry relative="1" as="geometry" />
        </mxCell>
        <mxCell id="wi1bxPE-I4fgc5AduZJ8-12" value="Attack Python Script" style="shape=image;html=1;verticalAlign=top;verticalLabelPosition=bottom;labelBackgroundColor=#ffffff;imageAspect=0;aspect=fixed;image=https://cdn1.iconfinder.com/data/icons/competitive-strategy-and-corporate-training/512/551_Alert_antivirus_attack_computer_virus_cyber_spot_security-128.png;fontSize=16;" vertex="1" parent="1">
          <mxGeometry x="37" y="-54" width="104" height="104" as="geometry" />
        </mxCell>
        <mxCell id="wi1bxPE-I4fgc5AduZJ8-15" style="edgeStyle=none;curved=1;rounded=0;orthogonalLoop=1;jettySize=auto;html=1;fontSize=12;startSize=8;endSize=8;" edge="1" parent="1" source="wi1bxPE-I4fgc5AduZJ8-14" target="wi1bxPE-I4fgc5AduZJ8-1">
          <mxGeometry relative="1" as="geometry" />
        </mxCell>
        <mxCell id="wi1bxPE-I4fgc5AduZJ8-14" value="Lambda Fucntion" style="ellipse;whiteSpace=wrap;html=1;aspect=fixed;fontSize=16;" vertex="1" parent="1">
          <mxGeometry x="143" y="-121" width="77" height="77" as="geometry" />
        </mxCell>
        <mxCell id="wi1bxPE-I4fgc5AduZJ8-17" style="edgeStyle=none;curved=1;rounded=0;orthogonalLoop=1;jettySize=auto;html=1;entryX=0.545;entryY=0.007;entryDx=0;entryDy=0;entryPerimeter=0;fontSize=12;startSize=8;endSize=8;" edge="1" parent="1" source="wi1bxPE-I4fgc5AduZJ8-16" target="wi1bxPE-I4fgc5AduZJ8-9">
          <mxGeometry relative="1" as="geometry" />
        </mxCell>
        <mxCell id="wi1bxPE-I4fgc5AduZJ8-16" value="Encrytion" style="ellipse;whiteSpace=wrap;html=1;aspect=fixed;fontSize=16;" vertex="1" parent="1">
          <mxGeometry x="145" y="96" width="80" height="80" as="geometry" />
        </mxCell>
        <mxCell id="wi1bxPE-I4fgc5AduZJ8-19" value="" style="edgeStyle=none;curved=1;rounded=0;orthogonalLoop=1;jettySize=auto;html=1;fontSize=12;startSize=8;endSize=8;" edge="1" parent="1" source="wi1bxPE-I4fgc5AduZJ8-18" target="wi1bxPE-I4fgc5AduZJ8-2">
          <mxGeometry relative="1" as="geometry" />
        </mxCell>
        <mxCell id="wi1bxPE-I4fgc5AduZJ8-18" value="&#xa;&lt;b id=&quot;docs-internal-guid-95b54148-7fff-6e05-98bb-07f9aef8554d&quot; style=&quot;font-weight:normal;&quot;&gt;&lt;span style=&quot;font-size: 12pt; font-family: Arial; color: rgb(34, 34, 34); background-color: transparent; font-weight: 400; font-style: normal; font-variant: normal; text-decoration: none; vertical-align: baseline;&quot;&gt;&amp;nbsp;Sysmon&lt;/span&gt;&lt;/b&gt;&#xa;&#xa;" style="ellipse;whiteSpace=wrap;html=1;aspect=fixed;fontSize=16;" vertex="1" parent="1">
          <mxGeometry x="275" y="277" width="80" height="80" as="geometry" />
        </mxCell>
        <mxCell id="wi1bxPE-I4fgc5AduZJ8-21" value="" style="edgeStyle=none;curved=1;rounded=0;orthogonalLoop=1;jettySize=auto;html=1;fontSize=12;startSize=8;endSize=8;" edge="1" parent="1" source="wi1bxPE-I4fgc5AduZJ8-20" target="wi1bxPE-I4fgc5AduZJ8-1">
          <mxGeometry relative="1" as="geometry" />
        </mxCell>
        <mxCell id="wi1bxPE-I4fgc5AduZJ8-20" value="IAM users" style="ellipse;whiteSpace=wrap;html=1;aspect=fixed;fontSize=16;" vertex="1" parent="1">
          <mxGeometry x="275" y="-138" width="80" height="80" as="geometry" />
        </mxCell>
        <mxCell id="wi1bxPE-I4fgc5AduZJ8-26" value="" style="edgeStyle=none;curved=1;rounded=0;orthogonalLoop=1;jettySize=auto;html=1;fontSize=12;startSize=8;endSize=8;" edge="1" parent="1" source="wi1bxPE-I4fgc5AduZJ8-22" target="wi1bxPE-I4fgc5AduZJ8-9">
          <mxGeometry relative="1" as="geometry" />
        </mxCell>
        <mxCell id="wi1bxPE-I4fgc5AduZJ8-22" value="Novelty&lt;br&gt;SELinux" style="ellipse;whiteSpace=wrap;html=1;aspect=fixed;fontSize=16;" vertex="1" parent="1">
          <mxGeometry x="-34" y="271" width="80" height="80" as="geometry" />
        </mxCell>
        <mxCell id="wi1bxPE-I4fgc5AduZJ8-28" style="edgeStyle=none;curved=1;rounded=0;orthogonalLoop=1;jettySize=auto;html=1;fontSize=12;startSize=8;endSize=8;" edge="1" parent="1" source="wi1bxPE-I4fgc5AduZJ8-27" target="wi1bxPE-I4fgc5AduZJ8-1">
          <mxGeometry relative="1" as="geometry" />
        </mxCell>
        <mxCell id="wi1bxPE-I4fgc5AduZJ8-27" value="Detect Script" style="shape=image;html=1;verticalAlign=top;verticalLabelPosition=bottom;labelBackgroundColor=#ffffff;imageAspect=0;aspect=fixed;image=https://cdn1.iconfinder.com/data/icons/competitive-strategy-and-corporate-training/512/551_Alert_antivirus_attack_computer_virus_cyber_spot_security-128.png;fontSize=16;" vertex="1" parent="1">
          <mxGeometry x="568" y="-32" width="128" height="128" as="geometry" />
        </mxCell>
      </root>
    </mxGraphModel>
  </diagram>
</mxfile>
